<svg width="48" height="48" viewBox="0 0 48 48" fill="currentColor" xmlns="http://www.w3.org/2000/svg">
<g filter="url(#filter0_d_801_526)">
<rect x="4.5" y="0.5" width="3" height="3" fill="black"/>
<rect x="4.5" y="3.5" width="3" height="3" fill="black"/>
<rect x="4.5" y="6.5" width="3" height="3" fill="black"/>
<rect x="4.5" y="9.5" width="3" height="3" fill="black"/>
<rect x="4.5" y="12.5" width="3" height="3" fill="black"/>
<rect x="4.5" y="15.5" width="3" height="3" fill="black"/>
<rect x="4.5" y="18.5" width="3" height="3" fill="black"/>
<rect x="4.5" y="21.5" width="3" height="3" fill="black"/>
<rect x="4.5" y="24.5" width="3" height="3" fill="black"/>
<rect x="4.5" y="27.5" width="3" height="3" fill="black"/>
<rect x="4.5" y="30.5" width="3" height="3" fill="black"/>
<rect x="4.5" y="33.5" width="3" height="3" fill="black"/>
<rect x="4.5" y="36.5" width="3" height="3" fill="black"/>
<rect x="37.5" y="0.5" width="3" height="3" transform="rotate(90 37.5 0.5)" fill="black"/>
<rect x="34.5" y="0.5" width="3" height="3" transform="rotate(90 34.5 0.5)" fill="black"/>
<rect x="31.5" y="0.5" width="3" height="3" transform="rotate(90 31.5 0.5)" fill="black"/>
<rect x="28.5" y="0.5" width="3" height="3" transform="rotate(90 28.5 0.5)" fill="black"/>
<rect x="25.5" y="0.5" width="3" height="3" transform="rotate(90 25.5 0.5)" fill="black"/>
<rect x="22.5" y="0.5" width="3" height="3" transform="rotate(90 22.5 0.5)" fill="black"/>
<rect x="19.5" y="0.5" width="3" height="3" transform="rotate(90 19.5 0.5)" fill="black"/>
<rect x="16.5" y="0.5" width="3" height="3" transform="rotate(90 16.5 0.5)" fill="black"/>
<rect x="13.5" y="0.5" width="3" height="3" transform="rotate(90 13.5 0.5)" fill="black"/>
<rect x="10.5" y="0.5" width="3" height="3" transform="rotate(90 10.5 0.5)" fill="black"/>
<rect x="40.5" y="3.5" width="3" height="3" transform="rotate(90 40.5 3.5)" fill="black"/>
<rect x="13.5" y="6.5" width="3" height="3" transform="rotate(90 13.5 6.5)" fill="black"/>
<rect x="13.5" y="3.5" width="3" height="3" transform="rotate(90 13.5 3.5)" fill="black"/>
<rect x="13.5" y="9.5" width="3" height="3" transform="rotate(90 13.5 9.5)" fill="black"/>
<rect x="34.5" y="6.5" width="3" height="3" transform="rotate(90 34.5 6.5)" fill="black"/>
<rect x="34.5" y="3.5" width="3" height="3" transform="rotate(90 34.5 3.5)" fill="black"/>
<rect x="34.5" y="9.5" width="3" height="3" transform="rotate(90 34.5 9.5)" fill="black"/>
<rect x="28.5" y="6.5" width="3" height="3" transform="rotate(90 28.5 6.5)" fill="black"/>
<rect x="28.5" y="3.5" width="3" height="3" transform="rotate(90 28.5 3.5)" fill="black"/>
<rect x="28.5" y="9.5" width="3" height="3" transform="rotate(90 28.5 9.5)" fill="black"/>
<rect x="34.5" y="12.5" width="3" height="3" transform="rotate(90 34.5 12.5)" fill="black"/>
<rect x="31.5" y="12.5" width="3" height="3" transform="rotate(90 31.5 12.5)" fill="black"/>
<rect x="28.5" y="12.5" width="3" height="3" transform="rotate(90 28.5 12.5)" fill="black"/>
<rect x="25.5" y="12.5" width="3" height="3" transform="rotate(90 25.5 12.5)" fill="black"/>
<rect x="22.5" y="12.5" width="3" height="3" transform="rotate(90 22.5 12.5)" fill="black"/>
<rect x="19.5" y="12.5" width="3" height="3" transform="rotate(90 19.5 12.5)" fill="black"/>
<rect x="16.5" y="12.5" width="3" height="3" transform="rotate(90 16.5 12.5)" fill="black"/>
<rect x="13.5" y="12.5" width="3" height="3" transform="rotate(90 13.5 12.5)" fill="black"/>
<rect x="37.5" y="21.5" width="3" height="3" transform="rotate(90 37.5 21.5)" fill="black"/>
<rect x="34.5" y="21.5" width="3" height="3" transform="rotate(90 34.5 21.5)" fill="black"/>
<rect x="31.5" y="21.5" width="3" height="3" transform="rotate(90 31.5 21.5)" fill="black"/>
<rect x="28.5" y="21.5" width="3" height="3" transform="rotate(90 28.5 21.5)" fill="black"/>
<rect x="25.5" y="21.5" width="3" height="3" transform="rotate(90 25.5 21.5)" fill="black"/>
<rect x="22.5" y="21.5" width="3" height="3" transform="rotate(90 22.5 21.5)" fill="black"/>
<rect x="19.5" y="21.5" width="3" height="3" transform="rotate(90 19.5 21.5)" fill="black"/>
<rect x="16.5" y="21.5" width="3" height="3" transform="rotate(90 16.5 21.5)" fill="black"/>
<rect x="13.5" y="21.5" width="3" height="3" transform="rotate(90 13.5 21.5)" fill="black"/>
<rect x="37.5" y="24.5" width="3" height="3" transform="rotate(90 37.5 24.5)" fill="black"/>
<rect x="13.5" y="24.5" width="3" height="3" transform="rotate(90 13.5 24.5)" fill="black"/>
<rect x="37.5" y="27.5" width="3" height="3" transform="rotate(90 37.5 27.5)" fill="black"/>
<rect x="13.5" y="27.5" width="3" height="3" transform="rotate(90 13.5 27.5)" fill="black"/>
<rect x="37.5" y="30.5" width="3" height="3" transform="rotate(90 37.5 30.5)" fill="black"/>
<rect x="13.5" y="30.5" width="3" height="3" transform="rotate(90 13.5 30.5)" fill="black"/>
<rect x="13.5" y="33.5" width="3" height="3" transform="rotate(90 13.5 33.5)" fill="black"/>
<rect x="37.5" y="33.5" width="3" height="3" transform="rotate(90 37.5 33.5)" fill="black"/>
<rect x="40.5" y="36.5" width="3" height="3" transform="rotate(90 40.5 36.5)" fill="black"/>
<rect x="37.5" y="36.5" width="3" height="3" transform="rotate(90 37.5 36.5)" fill="black"/>
<rect x="34.5" y="36.5" width="3" height="3" transform="rotate(90 34.5 36.5)" fill="black"/>
<rect x="31.5" y="36.5" width="3" height="3" transform="rotate(90 31.5 36.5)" fill="black"/>
<rect x="28.5" y="36.5" width="3" height="3" transform="rotate(90 28.5 36.5)" fill="black"/>
<rect x="25.5" y="36.5" width="3" height="3" transform="rotate(90 25.5 36.5)" fill="black"/>
<rect x="22.5" y="36.5" width="3" height="3" transform="rotate(90 22.5 36.5)" fill="black"/>
<rect x="19.5" y="36.5" width="3" height="3" transform="rotate(90 19.5 36.5)" fill="black"/>
<rect x="16.5" y="36.5" width="3" height="3" transform="rotate(90 16.5 36.5)" fill="black"/>
<rect x="13.5" y="36.5" width="3" height="3" transform="rotate(90 13.5 36.5)" fill="black"/>
<rect x="10.5" y="36.5" width="3" height="3" transform="rotate(90 10.5 36.5)" fill="black"/>
<rect x="43.5" y="39.5" width="3" height="3" transform="rotate(-180 43.5 39.5)" fill="black"/>
<rect x="43.5" y="36.5" width="3" height="3" transform="rotate(-180 43.5 36.5)" fill="black"/>
<rect x="43.5" y="33.5" width="3" height="3" transform="rotate(-180 43.5 33.5)" fill="black"/>
<rect x="43.5" y="30.5" width="3" height="3" transform="rotate(-180 43.5 30.5)" fill="black"/>
<rect x="43.5" y="27.5" width="3" height="3" transform="rotate(-180 43.5 27.5)" fill="black"/>
<rect x="43.5" y="24.5" width="3" height="3" transform="rotate(-180 43.5 24.5)" fill="black"/>
<rect x="43.5" y="21.5" width="3" height="3" transform="rotate(-180 43.5 21.5)" fill="black"/>
<rect x="43.5" y="18.5" width="3" height="3" transform="rotate(-180 43.5 18.5)" fill="black"/>
<rect x="43.5" y="15.5" width="3" height="3" transform="rotate(-180 43.5 15.5)" fill="black"/>
<rect x="43.5" y="12.5" width="3" height="3" transform="rotate(-180 43.5 12.5)" fill="black"/>
<rect x="43.5" y="9.5" width="3" height="3" transform="rotate(-180 43.5 9.5)" fill="black"/>
</g>
<defs>
<filter id="filter0_d_801_526" x="0.5" y="0.5" width="47" height="47" filterUnits="userSpaceOnUse" color-interpolation-filters="sRGB">
<feFlood flood-opacity="0" result="BackgroundImageFix"/>
<feColorMatrix in="SourceAlpha" type="matrix" values="0 0 0 0 0 0 0 0 0 0 0 0 0 0 0 0 0 0 127 0" result="hardAlpha"/>
<feOffset dy="4"/>
<feGaussianBlur stdDeviation="2"/>
<feComposite in2="hardAlpha" operator="out"/>
<feColorMatrix type="matrix" values="0 0 0 0 0 0 0 0 0 0 0 0 0 0 0 0 0 0 0.25 0"/>
<feBlend mode="normal" in2="BackgroundImageFix" result="effect1_dropShadow_801_526"/>
<feBlend mode="normal" in="SourceGraphic" in2="effect1_dropShadow_801_526" result="shape"/>
</filter>
</defs>
</svg>
